<svg width="30" height="30" viewBox="0 0 27 16" fill="none" xmlns="http://www.w3.org/2000/svg">
<path d="M3.79688 -4.76837e-07V16H0.898437V-4.76837e-07H3.79688ZM12.3574 16H6.93555V-4.76837e-07H12.4668C14.0553 -4.76837e-07 15.4199 0.320312 16.5605 0.960938C17.7064 1.59635 18.5866 2.51042 19.2012 3.70312C19.8158 4.89583 20.123 6.32292 20.123 7.98437C20.123 9.65104 19.8132 11.0833 19.1934 12.2812C18.5788 13.4792 17.6908 14.3984 16.5293 15.0391C15.373 15.6797 13.9824 16 12.3574 16ZM9.83398 13.4922H12.2168C13.3314 13.4922 14.2611 13.2891 15.0059 12.8828C15.7507 12.4714 16.3105 11.8594 16.6855 11.0469C17.0605 10.2292 17.248 9.20833 17.248 7.98437C17.248 6.76042 17.0605 5.74479 16.6855 4.9375C16.3105 4.125 15.7559 3.51823 15.0215 3.11719C14.2923 2.71094 13.3861 2.50781 12.3027 2.50781H9.83398V13.4922ZM24.4941 14.0781C24.0202 14.0781 23.6139 13.9115 23.2754 13.5781C22.9368 13.2396 22.7702 12.8333 22.7754 12.3594C22.7702 11.8906 22.9368 11.4896 23.2754 11.1562C23.6139 10.8229 24.0202 10.6562 24.4941 10.6562C24.9525 10.6562 25.3509 10.8229 25.6895 11.1562C26.0332 11.4896 26.2077 11.8906 26.2129 12.3594C26.2077 12.6771 26.1243 12.9661 25.9629 13.2266C25.8066 13.487 25.5983 13.6953 25.3379 13.8516C25.0827 14.0026 24.8014 14.0781 24.4941 14.0781ZM24.4941 6.14844C24.0202 6.14844 23.6139 5.98177 23.2754 5.64844C22.9368 5.3099 22.7702 4.90365 22.7754 4.42969C22.7702 3.96094 22.9368 3.5599 23.2754 3.22656C23.6139 2.88802 24.0202 2.71875 24.4941 2.71875C24.9525 2.71875 25.3509 2.88802 25.6895 3.22656C26.0332 3.5599 26.2077 3.96094 26.2129 4.42969C26.2077 4.74219 26.1243 5.02865 25.9629 5.28906C25.8066 5.54948 25.5983 5.75781 25.3379 5.91406C25.0827 6.07031 24.8014 6.14844 24.4941 6.14844Z" fill="#17A9E2"/>
</svg>
